<mxfile host="app.diagrams.net" modified="2023-07-23T15:14:39.367Z" agent="Mozilla/5.0 (Windows NT 10.0; Win64; x64) AppleWebKit/537.36 (KHTML, like Gecko) Chrome/114.0.0.0 Safari/537.36 Edg/114.0.1823.82" etag="Mzd-L2NjRatOilPRBjex" version="21.6.5" type="device">
  <diagram name="Seite-1" id="Llcf0wU5-I7FdMxQEXYU">
    <mxGraphModel dx="989" dy="549" grid="1" gridSize="10" guides="1" tooltips="1" connect="1" arrows="1" fold="1" page="1" pageScale="1" pageWidth="827" pageHeight="1169" math="0" shadow="0">
      <root>
        <mxCell id="0" />
        <mxCell id="1" parent="0" />
        <mxCell id="yo9vmSVmJTYEfxWX2iS3-10" value="Computer" style="swimlane;whiteSpace=wrap;html=1;startSize=23;fillColor=#121212;fontColor=#D0D0D0;fillStyle=auto;" vertex="1" parent="1">
          <mxGeometry x="10" y="10" width="790" height="130" as="geometry">
            <mxRectangle x="10" y="10" width="90" height="30" as="alternateBounds" />
          </mxGeometry>
        </mxCell>
        <mxCell id="yo9vmSVmJTYEfxWX2iS3-1" value="Raw Text&lt;br&gt;&lt;font style=&quot;font-size: 8px;&quot;&gt;(e.g. &quot;Lorem ipsum&quot;)&lt;/font&gt;" style="rounded=0;whiteSpace=wrap;html=1;strokeColor=#A0A0A0;fontColor=#808080;" vertex="1" parent="yo9vmSVmJTYEfxWX2iS3-10">
          <mxGeometry x="10" y="30" width="90" height="40" as="geometry" />
        </mxCell>
        <mxCell id="yo9vmSVmJTYEfxWX2iS3-3" value="Text File&lt;br&gt;&lt;font style=&quot;font-size: 8px;&quot;&gt;(e.g. demo.txt)&lt;/font&gt;" style="rounded=1;whiteSpace=wrap;html=1;strokeColor=#6c8ebf;fillColor=#dae8fc;" vertex="1" parent="yo9vmSVmJTYEfxWX2iS3-10">
          <mxGeometry x="10" y="80" width="90" height="40" as="geometry" />
        </mxCell>
        <mxCell id="yo9vmSVmJTYEfxWX2iS3-5" value="&lt;font style=&quot;font-size: 18px;&quot;&gt;HandCode&lt;br&gt;&lt;br&gt;&lt;br&gt;&lt;/font&gt;" style="shape=process;whiteSpace=wrap;html=1;backgroundOutline=1;size=0.034482758620689655;strokeColor=#82b366;fillColor=#d5e8d4;fontColor=#154700;" vertex="1" parent="yo9vmSVmJTYEfxWX2iS3-10">
          <mxGeometry x="170" y="30" width="290" height="90" as="geometry" />
        </mxCell>
        <mxCell id="yo9vmSVmJTYEfxWX2iS3-6" value="" style="endArrow=classic;html=1;rounded=0;exitX=1;exitY=0.5;exitDx=0;exitDy=0;entryX=0;entryY=0.5;entryDx=0;entryDy=0;strokeColor=#A0A0A0;" edge="1" parent="yo9vmSVmJTYEfxWX2iS3-10" source="yo9vmSVmJTYEfxWX2iS3-1" target="yo9vmSVmJTYEfxWX2iS3-5">
          <mxGeometry width="50" height="50" relative="1" as="geometry">
            <mxPoint x="320" y="270" as="sourcePoint" />
            <mxPoint x="370" y="220" as="targetPoint" />
            <Array as="points">
              <mxPoint x="130" y="50" />
              <mxPoint x="130" y="75" />
            </Array>
          </mxGeometry>
        </mxCell>
        <mxCell id="yo9vmSVmJTYEfxWX2iS3-7" value="" style="endArrow=classic;html=1;rounded=0;exitX=1;exitY=0.5;exitDx=0;exitDy=0;entryX=0;entryY=0.5;entryDx=0;entryDy=0;strokeColor=#A0A0A0;" edge="1" parent="yo9vmSVmJTYEfxWX2iS3-10" source="yo9vmSVmJTYEfxWX2iS3-3" target="yo9vmSVmJTYEfxWX2iS3-5">
          <mxGeometry width="50" height="50" relative="1" as="geometry">
            <mxPoint x="110" y="80" as="sourcePoint" />
            <mxPoint x="180" y="105" as="targetPoint" />
            <Array as="points">
              <mxPoint x="130" y="100" />
              <mxPoint x="130" y="75" />
            </Array>
          </mxGeometry>
        </mxCell>
        <mxCell id="yo9vmSVmJTYEfxWX2iS3-27" style="edgeStyle=orthogonalEdgeStyle;rounded=0;orthogonalLoop=1;jettySize=auto;html=1;exitX=1;exitY=0.5;exitDx=0;exitDy=0;entryX=0;entryY=0.5;entryDx=0;entryDy=0;strokeColor=#a0a0a0;" edge="1" parent="yo9vmSVmJTYEfxWX2iS3-10" source="yo9vmSVmJTYEfxWX2iS3-8" target="yo9vmSVmJTYEfxWX2iS3-26">
          <mxGeometry relative="1" as="geometry" />
        </mxCell>
        <mxCell id="yo9vmSVmJTYEfxWX2iS3-8" value="GCode File&lt;br&gt;&lt;font style=&quot;font-size: 8px;&quot;&gt;(e.g. demo.gcode, demo.nc, ...)&lt;/font&gt;" style="rounded=1;whiteSpace=wrap;html=1;strokeColor=#6c8ebf;fillColor=#dae8fc;" vertex="1" parent="yo9vmSVmJTYEfxWX2iS3-10">
          <mxGeometry x="500" y="35" width="130" height="50" as="geometry" />
        </mxCell>
        <mxCell id="yo9vmSVmJTYEfxWX2iS3-18" style="edgeStyle=orthogonalEdgeStyle;rounded=0;orthogonalLoop=1;jettySize=auto;html=1;exitX=1;exitY=0.5;exitDx=0;exitDy=0;entryX=0;entryY=0.5;entryDx=0;entryDy=0;endSize=3;strokeColor=#A0a0a0;" edge="1" parent="yo9vmSVmJTYEfxWX2iS3-10" source="yo9vmSVmJTYEfxWX2iS3-12" target="yo9vmSVmJTYEfxWX2iS3-16">
          <mxGeometry relative="1" as="geometry" />
        </mxCell>
        <mxCell id="yo9vmSVmJTYEfxWX2iS3-12" value="Text to Handwriting" style="shape=process;whiteSpace=wrap;html=1;backgroundOutline=1;fontColor=#808080;strokeColor=#A0A0A0;fontSize=6;size=0.08333333333333333;fillColor=none;" vertex="1" parent="yo9vmSVmJTYEfxWX2iS3-10">
          <mxGeometry x="190" y="80" width="50" height="30" as="geometry" />
        </mxCell>
        <mxCell id="yo9vmSVmJTYEfxWX2iS3-13" value="svg2gcode" style="shape=process;whiteSpace=wrap;html=1;backgroundOutline=1;fontColor=#808080;strokeColor=#A0A0A0;fontSize=6;size=0.08333333333333333;fillColor=none;" vertex="1" parent="yo9vmSVmJTYEfxWX2iS3-10">
          <mxGeometry x="290" y="80" width="50" height="30" as="geometry" />
        </mxCell>
        <mxCell id="yo9vmSVmJTYEfxWX2iS3-14" value="GCode Cleanup" style="shape=process;whiteSpace=wrap;html=1;backgroundOutline=1;fontColor=#808080;strokeColor=#A0A0A0;fontSize=6;size=0.08333333333333333;fillColor=none;" vertex="1" parent="yo9vmSVmJTYEfxWX2iS3-10">
          <mxGeometry x="390" y="80" width="50" height="30" as="geometry" />
        </mxCell>
        <mxCell id="yo9vmSVmJTYEfxWX2iS3-19" style="edgeStyle=orthogonalEdgeStyle;rounded=0;orthogonalLoop=1;jettySize=auto;html=1;exitX=1;exitY=0.5;exitDx=0;exitDy=0;entryX=0;entryY=0.5;entryDx=0;entryDy=0;strokeWidth=1;jumpSize=6;endSize=3;strokeColor=#a0a0a0;" edge="1" parent="yo9vmSVmJTYEfxWX2iS3-10" source="yo9vmSVmJTYEfxWX2iS3-16" target="yo9vmSVmJTYEfxWX2iS3-13">
          <mxGeometry relative="1" as="geometry" />
        </mxCell>
        <mxCell id="yo9vmSVmJTYEfxWX2iS3-16" value="*.svg" style="rounded=1;whiteSpace=wrap;html=1;strokeColor=#6c8ebf;fontSize=6;fillColor=#dae8fc;" vertex="1" parent="yo9vmSVmJTYEfxWX2iS3-10">
          <mxGeometry x="250" y="85" width="30" height="20" as="geometry" />
        </mxCell>
        <mxCell id="yo9vmSVmJTYEfxWX2iS3-17" value="*.gcode" style="rounded=1;whiteSpace=wrap;html=1;strokeColor=#6c8ebf;fontSize=6;fillColor=#dae8fc;" vertex="1" parent="yo9vmSVmJTYEfxWX2iS3-10">
          <mxGeometry x="350" y="85" width="30" height="20" as="geometry" />
        </mxCell>
        <mxCell id="yo9vmSVmJTYEfxWX2iS3-22" style="edgeStyle=orthogonalEdgeStyle;rounded=0;orthogonalLoop=1;jettySize=auto;html=1;exitX=1;exitY=0.5;exitDx=0;exitDy=0;entryX=0;entryY=0.5;entryDx=0;entryDy=0;endSize=3;strokeColor=#A0a0a0;" edge="1" parent="yo9vmSVmJTYEfxWX2iS3-10">
          <mxGeometry relative="1" as="geometry">
            <mxPoint x="180" y="94.96000000000001" as="sourcePoint" />
            <mxPoint x="190" y="94.96000000000001" as="targetPoint" />
          </mxGeometry>
        </mxCell>
        <mxCell id="yo9vmSVmJTYEfxWX2iS3-23" style="edgeStyle=orthogonalEdgeStyle;rounded=0;orthogonalLoop=1;jettySize=auto;html=1;exitX=1;exitY=0.5;exitDx=0;exitDy=0;entryX=0;entryY=0.5;entryDx=0;entryDy=0;strokeWidth=1;jumpSize=6;endSize=3;strokeColor=#a0a0a0;" edge="1" parent="yo9vmSVmJTYEfxWX2iS3-10">
          <mxGeometry relative="1" as="geometry">
            <mxPoint x="340" y="94.95" as="sourcePoint" />
            <mxPoint x="350" y="94.95" as="targetPoint" />
          </mxGeometry>
        </mxCell>
        <mxCell id="yo9vmSVmJTYEfxWX2iS3-24" style="edgeStyle=orthogonalEdgeStyle;rounded=0;orthogonalLoop=1;jettySize=auto;html=1;exitX=1;exitY=0.5;exitDx=0;exitDy=0;entryX=0;entryY=0.5;entryDx=0;entryDy=0;strokeWidth=1;jumpSize=6;endSize=3;strokeColor=#a0a0a0;" edge="1" parent="yo9vmSVmJTYEfxWX2iS3-10">
          <mxGeometry relative="1" as="geometry">
            <mxPoint x="380" y="94.9" as="sourcePoint" />
            <mxPoint x="390" y="94.9" as="targetPoint" />
          </mxGeometry>
        </mxCell>
        <mxCell id="yo9vmSVmJTYEfxWX2iS3-25" style="edgeStyle=orthogonalEdgeStyle;rounded=0;orthogonalLoop=1;jettySize=auto;html=1;exitX=1;exitY=0.5;exitDx=0;exitDy=0;entryX=0;entryY=0.5;entryDx=0;entryDy=0;strokeWidth=1;jumpSize=6;endSize=3;strokeColor=#a0a0a0;" edge="1" parent="yo9vmSVmJTYEfxWX2iS3-10">
          <mxGeometry relative="1" as="geometry">
            <mxPoint x="440" y="94.9" as="sourcePoint" />
            <mxPoint x="450" y="94.9" as="targetPoint" />
          </mxGeometry>
        </mxCell>
        <mxCell id="yo9vmSVmJTYEfxWX2iS3-26" value="GCode Sender&lt;br&gt;&lt;font style=&quot;font-size: 8px;&quot;&gt;(e.g. Universal GCode Sender, Estlcam, ...)&lt;/font&gt;" style="shape=process;whiteSpace=wrap;html=1;backgroundOutline=1;strokeColor=#a0a0a0;fontColor=#808080;" vertex="1" parent="yo9vmSVmJTYEfxWX2iS3-10">
          <mxGeometry x="660" y="30" width="120" height="60" as="geometry" />
        </mxCell>
        <mxCell id="yo9vmSVmJTYEfxWX2iS3-32" style="edgeStyle=orthogonalEdgeStyle;rounded=0;orthogonalLoop=1;jettySize=auto;html=1;exitX=0.999;exitY=0.332;exitDx=0;exitDy=0;entryX=0;entryY=0.5;entryDx=0;entryDy=0;strokeColor=#a0a0a0;exitPerimeter=0;" edge="1" parent="yo9vmSVmJTYEfxWX2iS3-10" source="yo9vmSVmJTYEfxWX2iS3-5" target="yo9vmSVmJTYEfxWX2iS3-8">
          <mxGeometry relative="1" as="geometry">
            <mxPoint x="470" y="79.9" as="sourcePoint" />
            <mxPoint x="500" y="79.9" as="targetPoint" />
            <Array as="points" />
          </mxGeometry>
        </mxCell>
        <mxCell id="yo9vmSVmJTYEfxWX2iS3-35" value="" style="endArrow=classic;html=1;rounded=0;entryX=0;entryY=0.5;entryDx=0;entryDy=0;strokeColor=#a0a0a0;startSize=4;endSize=3;" edge="1" parent="yo9vmSVmJTYEfxWX2iS3-10" target="yo9vmSVmJTYEfxWX2iS3-29">
          <mxGeometry width="50" height="50" relative="1" as="geometry">
            <mxPoint x="640" y="60" as="sourcePoint" />
            <mxPoint x="830" y="110" as="targetPoint" />
            <Array as="points">
              <mxPoint x="640" y="105" />
            </Array>
          </mxGeometry>
        </mxCell>
        <mxCell id="yo9vmSVmJTYEfxWX2iS3-28" value="CNC/3D Printer" style="swimlane;whiteSpace=wrap;html=1;fillColor=#121212;fontColor=#d0d0d0;" vertex="1" parent="1">
          <mxGeometry x="820" y="10" width="150" height="130" as="geometry" />
        </mxCell>
        <mxCell id="yo9vmSVmJTYEfxWX2iS3-29" value="SD Card Reader" style="rounded=0;whiteSpace=wrap;html=1;fontColor=#808080;strokeColor=#a0a0a0;" vertex="1" parent="yo9vmSVmJTYEfxWX2iS3-28">
          <mxGeometry x="10" y="90" width="120" height="30" as="geometry" />
        </mxCell>
        <mxCell id="yo9vmSVmJTYEfxWX2iS3-37" value="Control Board&lt;br&gt;&lt;font style=&quot;font-size: 8px;&quot;&gt;(e.g. Marlin, GRBL, ...)&lt;/font&gt;" style="shape=process;whiteSpace=wrap;html=1;backgroundOutline=1;strokeColor=#a0a0a0;fontColor=#808080;" vertex="1" parent="yo9vmSVmJTYEfxWX2iS3-28">
          <mxGeometry x="10" y="30" width="120" height="50" as="geometry" />
        </mxCell>
        <mxCell id="yo9vmSVmJTYEfxWX2iS3-39" value="" style="endArrow=classic;html=1;rounded=0;exitX=1;exitY=0.5;exitDx=0;exitDy=0;entryX=0.998;entryY=0.718;entryDx=0;entryDy=0;entryPerimeter=0;strokeColor=#a0a0a0;endSize=3;" edge="1" parent="yo9vmSVmJTYEfxWX2iS3-28" source="yo9vmSVmJTYEfxWX2iS3-29">
          <mxGeometry width="50" height="50" relative="1" as="geometry">
            <mxPoint x="130.24" y="106.92" as="sourcePoint" />
            <mxPoint x="130" y="59.999999999999986" as="targetPoint" />
            <Array as="points">
              <mxPoint x="140" y="105" />
              <mxPoint x="140" y="60" />
            </Array>
          </mxGeometry>
        </mxCell>
        <mxCell id="yo9vmSVmJTYEfxWX2iS3-38" value="" style="endArrow=classic;html=1;rounded=0;exitX=1;exitY=0.5;exitDx=0;exitDy=0;entryX=-0.003;entryY=0.6;entryDx=0;entryDy=0;entryPerimeter=0;strokeColor=#a0a0a0;endSize=3;" edge="1" parent="1" source="yo9vmSVmJTYEfxWX2iS3-26" target="yo9vmSVmJTYEfxWX2iS3-37">
          <mxGeometry width="50" height="50" relative="1" as="geometry">
            <mxPoint x="780" y="110" as="sourcePoint" />
            <mxPoint x="820" y="90" as="targetPoint" />
          </mxGeometry>
        </mxCell>
      </root>
    </mxGraphModel>
  </diagram>
</mxfile>
